<?xml version="1.0" encoding="UTF-8" standalone="no"?>
<!-- Created with Inkscape (http://www.inkscape.org/) -->

<svg
   width="76.759377mm"
   height="78.129395mm"
   viewBox="0 0 76.759377 78.129395"
   version="1.1"
   id="svg5"
   xml:space="preserve"
   xmlns:inkscape="http://www.inkscape.org/namespaces/inkscape"
   xmlns:sodipodi="http://sodipodi.sourceforge.net/DTD/sodipodi-0.dtd"
   xmlns="http://www.w3.org/2000/svg"
   xmlns:svg="http://www.w3.org/2000/svg"><sodipodi:namedview
     id="namedview7"
     pagecolor="#ffffff"
     bordercolor="#000000"
     borderopacity="0.25"
     inkscape:showpageshadow="2"
     inkscape:pageopacity="0.0"
     inkscape:pagecheckerboard="0"
     inkscape:deskcolor="#d1d1d1"
     inkscape:document-units="mm"
     showgrid="false" /><defs
     id="defs2" /><g
     inkscape:label="Layer 1"
     inkscape:groupmode="layer"
     id="layer1"
     transform="translate(-65.582971,-36.223456)"><path
       style="fill:#c80036;fill-opacity:1;stroke-width:0.130207"
       d="m 66.333295,113.88416 -0.356434,-0.1934 -0.196948,-0.38086 -0.196947,-0.38085 V 75.149965 37.370885 l 0.212961,-0.36051 0.212961,-0.36051 0.360509,-0.21296 0.360515,-0.21296 h 5.09055 5.090549 l 0.260417,0.26042 0.260411,0.26041 v 9.77858 9.77857 l 0.442709,0.44271 0.442703,0.44271 h 4.244764 4.244757 v 0.0564 0.0564 l -0.911632,1.89674 -0.911633,1.89675 H 80.10091 75.218317 v -10.6119 -10.6119 l -0.260417,-0.26042 -0.260416,-0.26041 -0.488275,-0.005 -0.488279,-0.005 -2.27863,0.0104 -2.278631,0.0104 -0.260411,0.25912 -0.260417,0.25913 -0.03474,14.77721 -0.03474,14.77721 0.200196,0.38714 0.200195,0.38713 0.290259,0.18693 0.290254,0.18693 1.934283,0.0394 1.934282,0.0394 0.246691,-0.30466 0.246692,-0.30464 v -0.31702 -0.31701 l -0.319599,-0.3196 -0.3196,-0.3196 h -1.177795 -1.177782 v -13.54159 -13.54157 h 1.039737 1.039737 l 0.03445,12.49744 0.0345,12.49743 0.425499,0.42566 0.425499,0.42565 3.968998,0.0379 3.969003,0.0379 v 0.0745 0.0744 l -1.128221,2.32899 -1.128225,2.32899 h -5.054575 -5.054576 l -0.425228,0.37992 -0.425228,0.37993 -0.0376,18.20718 -0.0376,18.207185 0.07176,0.40036 0.07176,0.40036 0.263871,0.28323 0.263867,0.28323 h 2.774203 2.774207 l 0.218286,-0.2412 0.218286,-0.24121 -0.0039,-17.044485 -0.0039,-17.04448 0.08273,-0.79152 0.08273,-0.79152 0.713902,-0.0289 0.713902,-0.0289 0.344019,0.0755 0.344023,0.0755 -0.03386,12.09414 -0.03386,12.094131 0.125722,0.33067 0.125723,0.330677 0.334678,0.2193 0.334682,0.219287 7.125505,0.0305 7.125506,0.0305 0.48351,-0.11653 0.483511,-0.11652 0.200077,-0.285647 0.200077,-0.285647 v -7.698141 -7.69819 l -0.238113,-0.21549 -0.238128,-0.21549 h -2.691551 -2.691551 v -0.11457 -0.11456 l 0.726067,-0.54819 0.726068,-0.54818 0.566871,-0.25076 0.566871,-0.25075 2.450524,-0.0305 2.450524,-0.0305 0.03573,2.18135 0.03573,2.18135 -0.198459,0.38378 -0.198463,0.38378 v 0.49832 0.49833 l 0.204029,0.29129 0.204029,0.29129 0.672702,0.49826 0.672707,0.49827 0.03617,4.54537 0.03617,4.54536 -0.07997,1.852965 -0.07997,1.85298 -9.437935,0.035 -9.437939,0.035 -0.314206,0.36534 -0.314205,0.36533 v 3.62099 3.62098 l 0.269865,0.34308 0.269865,0.34308 H 88.3565 98.740944 l 0.283113,-0.30136 0.283114,-0.30136 V 99.126316 87.891455 l -0.404465,-0.37776 -0.404392,-0.37776 h -0.316962 -0.316966 l -0.495454,-0.52083 -0.495454,-0.52083 h -0.215471 -0.215471 v -2.14842 -2.14842 h 2.224374 2.22439 l -0.0434,-0.12188 -0.0434,-0.12187 -1.425557,-1.1903 -1.425546,-1.19029 -3.782749,0.0543 -3.782754,0.0543 -0.606748,0.20642 -0.606748,0.20642 -0.760078,0.36784 -0.760073,0.36782 -0.923454,0.91146 -0.923458,0.91145 -0.53508,0.91145 -0.535075,0.91145 -0.422856,1.23697 -0.422851,1.23697 -0.05291,2.11587 -0.05291,2.11587 h -2.135038 -2.135039 v -6.30202 -6.30203 l 1.772172,-3.62629 1.772171,-3.62629 0.557664,-1.17186 0.557663,-1.17187 0.779183,-1.6276 0.779177,-1.62759 0.812313,-1.6927 0.812302,-1.69269 0.713583,-1.49739 0.713577,-1.49739 1.532632,-3.25518 1.532627,-3.25518 0.462841,-0.97656 0.462842,-0.97656 0.90018,-1.91213 0.900176,-1.91214 0.189398,-0.28524 0.189399,-0.28525 18.419194,-0.0558 18.41919,-0.0557 0.39063,0.072 0.39062,0.072 -0.0131,11.39554 -0.013,11.39554 -0.0527,0.0527 -0.0527,0.0527 -1.91754,0.0483 -1.91754,0.0483 -0.0349,-9.99051 -0.0349,-9.99052 -0.38243,-0.39913 -0.38244,-0.39912 h -4.51533 -4.51535 l -0.33106,0.26041 -0.33106,0.26042 h -1.87984 -1.87985 l -0.23567,-0.26042 -0.23567,-0.26041 h -0.36114 -0.36114 l -0.19608,0.19608 -0.19609,0.19608 -0.0874,0.27529 -0.0874,0.27529 0.25448,0.34243 0.25448,0.34242 0.35361,0.042 0.35361,0.042 0.29513,-0.19338 0.29513,-0.19338 1.85144,0.0733 1.85143,0.0733 0.43615,0.43614 0.43614,0.43615 h 3.72481 3.72481 l -0.0334,9.14707 -0.0334,9.14708 -1.0091,0.038 -1.00912,0.038 v -1.0342 -1.03421 l -0.25505,-1.47777 -0.25505,-1.47777 -0.37748,-1.10676 -0.37748,-1.10676 -0.59248,-1.17802 -0.59248,-1.17801 -0.78236,-1.16572 -0.78235,-1.16572 -0.93556,-1.0117 -0.93556,-1.0117 -0.80054,-0.60441 -0.80053,-0.60441 -0.13021,-0.12224 -0.1302,-0.12225 1.69269,0.0524 1.6927,0.0524 0.26773,0.14709 0.26774,0.1471 1.30381,1.92948 1.30381,1.92948 0.29419,0.48773 0.29419,0.48773 -0.14796,0.4483 -0.14795,0.4483 0.19796,0.38282 0.19796,0.38282 0.21078,0.0809 0.21078,0.0809 h 0.35542 0.35542 l 0.28497,-0.26549 0.28496,-0.26549 v -0.37625 -0.37625 l -0.19461,-0.19461 -0.19461,-0.1946 -0.29723,-0.23787 -0.29722,-0.23787 -1.15926,-1.7578 -1.15925,-1.75779 -0.82206,-1.26453 -0.82207,-1.26452 -0.25264,-0.13521 -0.25264,-0.13521 h -0.18631 -0.18631 l -0.34992,0.27525 -0.34991,0.27524 -1.81267,1.1e-4 -1.81266,1.1e-4 -1.14272,-0.5899 -1.14271,-0.58989 -1.43229,-0.46996 -1.43228,-0.46996 -1.23697,-0.2522 -1.23697,-0.2522 -1.43228,-0.13506 -1.43229,-0.13505 -1.25196,-1.1e-4 -1.25196,-1.1e-4 -0.34308,0.26987 -0.34308,0.26986 v 12.20293 12.20295 l 0.55338,0.52426 0.55339,0.52427 1.69269,1.4393 1.6927,1.4393 1.50755,1.28618 1.50755,1.28618 2.65909,2.29691 2.65908,2.2969 2.73436,2.36916 2.73436,2.36915 1.10676,0.95178 1.10676,0.95177 4.04329,3.49669 4.0433,3.496668 2.90424,2.539057 2.90425,2.53905 0.44754,0.39062 0.44754,0.39062 -0.0384,1.62759 -0.0383,1.62759 -2.153,0.0356 -2.15301,0.0356 -1.82943,-1.59806 -1.82942,-1.59807 -2.07222,-1.77576 -2.07221,-1.77576 -3.58071,-3.089735 -3.5807,-3.08971 -6.24995,-5.35894 -6.24996,-5.35894 -1.60456,-1.36404 -1.60456,-1.36404 -0.19542,-0.10952 -0.19543,-0.10951 0.0422,15.74664 0.0422,15.746645 -0.1787,0.21563 -0.1787,0.21563 -17.269106,-0.005 -17.26909,-0.005 -0.35643,-0.19339 z m 29.635273,-16.528605 0.196081,-0.19608 0.08443,-0.26602 0.08443,-0.26602 -0.209113,-0.31914 -0.209107,-0.31915 h -0.445342 -0.445341 l -0.202696,0.28939 -0.202695,0.28939 v 0.20689 0.20689 l 0.26549,0.28497 0.265486,0.28496 h 0.311144 0.311145 z m 0.473343,-27.76596 -2.61e-4,-4.65491 0.05568,-3.32029 0.05568,-3.32029 -0.08802,-0.90846 -0.08797,-0.90846 -0.640478,1.36419 -0.640483,1.36418 -1.800907,3.69514 -1.800913,3.69513 v 0.0331 0.0331 l -1.757798,3.67635 -1.757802,3.67635 v 0.11493 0.11494 h 4.231742 4.231742 l -2.61e-4,-4.65492 z m -4.304876,1.49739 0.242911,-0.55338 1.227196,-2.60415 1.227202,-2.60415 0.407005,-0.78124 0.407005,-0.78125 0.0062,3.93877 0.0062,3.93878 H 93.777372 91.89399 Z m -14.864373,-0.56077 0.289388,-0.20269 v -0.42346 -0.42346 l -0.16276,-0.21306 -0.162759,-0.21307 -0.351518,-0.0847 -0.351519,-0.0847 -0.332069,0.33207 -0.332075,0.33207 v 0.24877 0.24878 l 0.269866,0.34307 0.269865,0.34308 h 0.287099 0.287095 z m -0.818094,-0.44951 -0.0812,-0.13137 0.08228,-0.25925 0.08228,-0.25925 h 0.23771 0.23771 l 0.08128,0.21182 0.08128,0.21181 -0.1484,0.17881 -0.148394,0.17881 h -0.171687 -0.171682 z m 54.433342,-3.83403 0.3196,-0.3196 v -0.30247 -0.30246 l -0.19386,-0.27677 -0.19385,-0.27677 -0.034,-5.38367 -0.034,-5.38368 h -0.32551 -0.32552 l -0.034,5.32146 -0.034,5.32146 -0.32404,0.38511 -0.32405,0.3851 v 0.25634 0.25635 l 0.31961,0.3196 0.3196,0.3196 h 0.27225 0.27225 z m -0.83009,-0.4291 -0.1172,-0.22786 0.0584,-0.16276 0.0584,-0.16275 h 0.22352 0.22352 l 0.15016,0.15015 0.15015,0.15015 -0.1287,0.24047 -0.12869,0.24047 h -0.18615 -0.18615 z m -51.631032,-6.09374 0.33207,-0.33207 -0.08312,-0.35152 -0.08313,-0.35152 -0.26929,-0.22786 -0.269284,-0.22786 h -0.163331 -0.163325 l -0.343079,0.26986 -0.343078,0.26987 v 0.38117 0.38117 l 0.260417,0.26042 0.260416,0.26041 h 0.266332 0.266332 z m -0.811569,-0.36821 -0.07625,-0.1987 0.08433,-0.13644 0.08432,-0.13645 h 0.261789 0.261785 l -0.04163,0.29164 -0.04163,0.29163 -0.228256,0.0435 -0.228257,0.0435 z m 4.471538,0.34812 0.16276,-0.21844 v -0.32294 -0.32293 l -0.215495,-0.23811 -0.215491,-0.23812 h -0.392738 -0.392744 l -0.238113,0.21549 -0.238119,0.21549 v 0.3295 0.3295 l 0.292395,0.31124 0.292395,0.31124 0.391193,-0.0767 0.391198,-0.0767 z m 42.972033,-4.79842 0.28939,-0.2027 v -0.31813 -0.31814 l -0.26042,-0.26041 -0.26041,-0.26042 h -0.31622 -0.31622 l -0.20461,0.20462 -0.20461,0.20461 v 0.33852 0.33851 l 0.21549,0.23812 0.21549,0.23811 h 0.27636 0.27638 z m -26.241158,-3.70467 0.521965,-0.52197 -0.0648,-0.67437 -0.0648,-0.67438 -0.46199,-0.42337 -0.461985,-0.42339 -0.445179,-0.0835 -0.445179,-0.0835 -0.473919,0.19802 -0.473924,0.19802 -0.262783,0.43101 -0.262774,0.43101 -4.92e-4,0.5687 -4.92e-4,0.5687 0.505508,0.50551 0.505513,0.50551 h 0.681673 0.681674 l 0.52197,-0.52196 z m 5.522228,62.653215 -0.21549,-0.23812 v -4.51445 -4.51446 h 2.35229 2.3523 l 0.2844,-0.14544 0.28441,-0.14545 0.22497,-0.27773 0.22496,-0.27772 0.003,-3.841127 0.003,-3.841118 0.13022,-0.46876 0.13021,-0.46876 0.2617,-0.23683 0.2617,-0.23684 0.71071,-0.0589 0.71071,-0.0589 0.78466,0.67976 0.78466,0.67975 v 0.11733 0.11732 h -0.43817 -0.43816 l -0.3386,0.26634 -0.33859,0.26634 -0.13397,0.48236 -0.13396,0.48235 -9.9e-4,4.644925 -9.8e-4,4.64493 0.3425,0.40705 0.34252,0.40705 0.59964,-0.039 0.59965,-0.039 0.26226,-0.41057 0.26226,-0.41056 0.38916,-0.0807 0.38915,-0.0807 0.62483,-0.61553 0.62482,-0.61552 4.16244,-0.0448 4.16243,-0.0448 0.81313,0.6935 0.81312,0.69349 1.00911,0.89985 1.00911,0.89985 v 0.11165 0.11165 h -1.38715 -1.38715 l -0.68838,-0.65103 -0.68837,-0.65104 h -3.2545 -3.25451 l -0.33299,0.1266 -0.333,0.12661 -0.58359,0.53794 -0.58359,0.53793 -2.64004,-0.0427 -2.64004,-0.0427 -0.28838,0.16153 -0.28838,0.16152 -0.14907,0.49757 -0.14907,0.49756 0.20866,0.40351 0.20866,0.4035 0.1321,0.0816 0.13211,0.0816 14.22011,-0.008 14.22012,-0.008 0.26449,-0.26449 0.26448,-0.26449 0.0371,-34.859425 0.0371,-34.85942 -0.0712,-0.40055 -0.0712,-0.40056 -0.18315,-0.25048 -0.18304,-0.25049 -24.91267,-0.0808 -24.912682,-0.0808 -0.587402,-0.0926 -0.587402,-0.0926 -0.353467,0.27804 -0.353467,0.27804 -0.148341,0.49511 -0.14834,0.49511 0.227867,0.4802 0.227868,0.48019 0.366596,0.18958 0.366602,0.18957 h 0.437305 0.437305 l 0.252749,-0.19117 0.25275,-0.19117 23.795409,-0.004 23.79541,-0.004 v 22.46117 22.46078 h -0.13312 -0.13311 l -0.58217,-0.53662 -0.58216,-0.53662 -0.29383,-0.47248 -0.29383,-0.47249 -0.0651,-5.18826 -0.0651,-5.18826 -0.39062,-0.31236 -0.39062,-0.31236 -3.2942,-4.9e-4 -3.2942,-4.9e-4 -0.3803,0.19665 -0.3803,0.19666 -0.1197,0.22652 -0.1197,0.22652 -0.0469,8.26817 -0.0469,8.26817 0.23029,0.42141 0.2303,0.42142 0.40751,0.46413 0.40752,0.46414 0.36483,0.18866 0.36483,0.18866 h 2.00296 2.00297 l 0.73785,0.14818 0.73786,0.14818 v 2.98624 2.986231 l -0.37096,-0.3024 -0.37096,-0.302411 -2.07674,-1.8229 -2.07673,-1.82291 -2.79315,-2.42132 -2.79316,-2.42133 -1.4212,-1.22448 -1.42121,-1.22447 -0.13043,-0.21172 -0.13043,-0.21172 1.67292,-1.84717 1.67292,-1.84718 0.42746,-0.1786 0.42747,-0.17861 0.0852,-0.33934 0.0852,-0.33935 -0.23092,-0.25517 -0.23093,-0.25517 h -0.22006 -0.22005 l -0.21549,0.23812 -0.21549,0.23811 v 0.1302 0.1302 l -1.33123,1.42204 -1.33123,1.42204 -0.56745,0.56142 -0.56746,0.56143 -0.53549,-0.44212 -0.53549,-0.44212 -0.0426,-0.12766 -0.0426,-0.12765 3.06191,-3.24683 3.06191,-3.24684 0.38576,-0.16085 0.38577,-0.16084 0.13583,-0.25381 0.13583,-0.2538 -0.127,-0.33405 -0.12701,-0.33404 h -0.46174 -0.46174 l -0.15448,0.35807 -0.15448,0.35807 -1.11225,1.22844 -1.11225,1.22845 -2.06713,2.1244 -2.06714,2.12439 h -0.10566 -0.10566 l -0.62648,-0.57527 -0.62647,-0.57527 0.0649,-0.0532 0.0649,-0.0532 0.97655,-0.73019 0.97656,-0.73019 1.063,-1.08277 1.06301,-1.08276 0.74176,-1.04166 0.74177,-1.04166 0.63073,-1.25542 0.63073,-1.25542 0.37946,-1.15342 0.37947,-1.15341 0.1681,-0.94401 0.16811,-0.944 4.89448,-0.003 4.89448,-0.003 0.27772,-0.22497 0.27773,-0.22496 0.14545,-0.28441 0.14544,-0.28441 v -12.88169 -12.88154 l -0.2674,-0.33994 -0.2674,-0.33994 -0.48129,-0.13919 -0.48129,-0.13919 -19.81455,0.0384 -19.814552,0.0384 -0.367601,0.2658 -0.367605,0.2658 -0.781245,1.53781 -0.781244,1.5378 -4.521814,0.0193 -4.521817,0.0193 -0.360121,0.36019 -0.36012,0.36019 -0.04808,1.9708 -0.04808,1.97081 0.153134,0.51111 0.153129,0.5111 0.478953,0.20013 0.478952,0.20011 2.898188,-0.0945 2.898193,-0.0945 v 0.14182 0.14182 l -0.352645,0.71902 -0.35264,0.71902 h -4.1388 -4.139511 v -9.17224 -9.17223 l 0.289387,-0.2027 0.289388,-0.2027 h 0.536778 0.536782 l 0.215491,0.23812 0.215491,0.23812 v 3.77905 3.77906 l 0.297827,0.44243 0.297828,0.44243 0.385763,0.18647 0.38576,0.18648 0.654878,0.0551 0.654882,0.0551 0.487383,-0.20365 0.487389,-0.20364 0.224909,-0.39521 0.224915,-0.3952 1.302073,0.003 1.302077,0.003 0.252749,0.19116 0.25275,0.19118 h 0.340849 0.340849 l 0.236469,-0.17292 0.236475,-0.17291 v -0.35224 -0.35223 l -0.231765,-0.2561 -0.23177,-0.25609 h -0.409505 -0.4095 l -0.135373,0.13536 -0.135368,0.13537 -1.2132,-0.0377 -1.213201,-0.0377 -0.740083,-1.08365 -0.740083,-1.08366 -0.346223,-0.39456 -0.346228,-0.39458 v -1.87462 -1.87461 l 0.260416,-0.26042 0.260412,-0.26041 28.287565,4.9e-4 28.28756,4.9e-4 0.43102,0.26278 0.43101,0.26278 0.18747,0.44869 0.18747,0.44863 v 37.5081 37.508105 l -0.17953,0.42968 -0.17953,0.42968 -0.35886,0.28228 -0.35885,0.28227 H 122.8761 104.55459 Z m 4.73239,-6.53267 0.26041,-0.26042 v -0.37044 -0.37044 l -0.24823,-0.22465 -0.24823,-0.22465 -0.4313,0.0417 -0.43129,0.0417 -0.18684,0.33454 -0.18684,0.33455 0.089,0.35468 0.089,0.35469 0.28907,0.11632 0.28907,0.11631 0.22786,0.008 0.22787,0.008 0.26041,-0.26042 z m -38.063973,1.34547 -0.0868,-0.0868 V 91.691715 74.807565 l 0.618485,-0.0252 0.618484,-0.0252 0.455726,0.0751 0.455725,0.0751 -0.03351,16.92102 -0.03351,16.921025 h -0.953898 -0.953886 z m 8.506884,-1.99651 v -2.08515 l 8.756448,0.0335 8.756444,0.0335 v 2.01821 2.01822 l -8.756444,0.0335 -8.756448,0.0335 z m 2.626448,0.69596 0.238114,-0.21549 v -0.37044 -0.37045 l -0.260417,-0.26041 -0.260411,-0.26041 h -0.316071 -0.316065 l -0.272149,0.34597 -0.272144,0.34599 0.08279,0.2725 0.08279,0.27251 0.200092,0.22786 0.200092,0.22786 h 0.327636 0.327635 z m 3.232885,-0.0449 0.260411,-0.26042 v -0.32552 -0.32552 l -0.260411,-0.26041 -0.260417,-0.26041 h -0.325519 -0.32552 l -0.260411,0.26041 -0.260417,0.26041 v 0.32552 0.32552 l 0.260417,0.26042 0.260411,0.26041 h 0.32552 0.325519 z m 3.255183,0 0.260417,-0.26042 v -0.39062 -0.39062 l -0.260417,-0.26042 -0.260416,-0.26041 h -0.266332 -0.266332 l -0.319599,0.3196 -0.319604,0.3196 v 0.24877 0.24877 l 0.269865,0.34308 0.269866,0.34308 h 0.31607 0.316066 z m -0.82588,-0.44934 -0.0774,-0.2017 0.07495,-0.19531 0.07495,-0.19531 h 0.255131 0.255131 l -0.04119,0.35695 -0.04119,0.35697 -0.21148,0.04 -0.21148,0.0401 z m 4.233573,0.49426 0.238114,-0.21549 v -0.39274 -0.39274 l -0.215491,-0.23812 -0.215491,-0.23811 h -0.365371 -0.365367 l -0.26549,0.28497 -0.265485,0.28496 v 0.17932 0.17932 l 0.149699,0.28441 0.149703,0.2844 0.143262,0.0957 0.143267,0.0957 0.315268,0.002 0.315264,0.002 0.238118,-0.21549 z m 3.255184,0 0.238118,-0.21549 v -0.37044 -0.37045 l -0.260416,-0.26041 -0.260417,-0.26041 h -0.316065 -0.316071 l -0.269865,0.34307 -0.269865,0.34308 v 0.16019 0.16019 l 0.269865,0.34308 0.269865,0.34308 h 0.338369 0.338368 z m 18.812926,-1.70507 -0.0602,-0.0976 -0.001,-2.01822 -0.001,-2.01821 0.0867,-1.539837 0.0867,-1.539828 1.56683,1.409618 1.56684,1.409627 0.42882,0.35808 0.42882,0.35806 h 0.3531 0.3531 l 0.51078,-0.26041 0.51079,-0.26041 h 0.0955 0.0954 l 1.01633,0.86111 1.01633,0.86111 0.68359,0.64365 0.68359,0.64364 v 0.0612 0.0612 l -3.55587,-0.0839 -3.55587,-0.0839 -0.51311,0.26381 -0.51311,0.2638 -0.38244,0.40255 -0.38243,0.40255 h -0.22836 -0.22837 l -0.0602,-0.0977 z m -9.98111,-10.644445 v -7.22651 h 0.077 0.077 l 1.22297,1.07421 1.22298,1.07421 -0.42105,0.17421 -0.42105,0.17421 -0.30564,0.28151 -0.30564,0.28152 -0.273,0.52083 -0.273,0.52083 -0.0417,2.73435 -0.0417,2.73436 -0.0801,0.48718 -0.0801,0.48717 0.16301,0.19642 0.16301,0.19641 h 0.37167 0.37168 l 0.22132,-0.33778 0.22132,-0.33778 -0.22583,-0.41934 -0.22583,-0.41934 0.0401,-2.7558 0.0401,-2.75581 0.3523,-0.35202 0.35231,-0.35202 0.77966,-0.0564 0.77966,-0.0564 0.97409,0.82891 0.97409,0.82892 0.01,0.0977 0.01,0.0977 h -0.3427 -0.3427 l -0.43198,0.26697 -0.43198,0.26698 -0.29953,0.48172 -0.29953,0.48171 -0.0425,4.00388 -0.0425,4.003885 h -1.74787 -1.74787 z m 31.59156,5.952065 -1.0254,-0.87398 0.0649,-4.231735 0.0649,-4.23174 -0.20466,-0.35436 -0.20466,-0.35435 -0.36971,-0.12889 -0.36972,-0.12888 -1.46488,0.0785 -1.46488,0.0785 -0.73409,-0.0917 -0.73409,-0.0917 -0.3351,-0.3351 -0.33511,-0.3351 v -2.60033 -2.60032 l 0.20596,0.079 0.20596,0.079 h 1.81226 1.81225 l 9.9e-4,0.22787 9.8e-4,0.22786 0.37998,0.66249 0.37999,0.66249 1.16492,1.09661 1.16493,1.09662 0.60229,0.30079 0.60229,0.3008 v 6.17572 6.175725 l -0.0976,-0.005 -0.0977,-0.005 -1.02539,-0.87397 z m -2.20563,-12.420025 0.30136,-0.28312 v -0.26002 -0.26001 l -0.2155,-0.23812 -0.21549,-0.23811 h -0.41959 -0.41961 l -0.16243,0.19571 -0.16242,0.19571 v 0.3498 0.34981 l 0.29111,0.23573 0.29112,0.23573 h 0.20505 0.20504 z m -53.995139,7.05389 v -2.34373 h 2.145891 2.145884 l -0.03002,1.18244 -0.03002,1.18244 0.425228,0.38005 0.425228,0.38005 h 0.264831 0.264826 l 0.389746,-0.20155 0.389752,-0.20155 0.124615,-0.32776 0.12461,-0.32776 v -1.03321 -1.03318 h 1.422293 1.422294 l 0.400612,-0.3371 0.400612,-0.33709 v -0.51927 -0.51927 l -0.387782,-0.38778 -0.387783,-0.38778 -1.435123,0.0908 -1.435123,0.0908 v -1.29669 -1.29669 l 0.135993,-0.77261 0.135994,-0.7726 0.274348,-0.71615 0.274353,-0.71614 0.251313,-0.42317 0.251317,-0.42317 h 2.1378 2.137805 v 6.70568 6.70568 H 85.634904 79.51516 Z m 10.344104,0.49186 0.202696,-0.28939 v -0.28709 -0.2871 l -0.352439,-0.27722 -0.352433,-0.27723 -0.331154,0.0796 -0.331155,0.0796 -0.162759,0.21307 -0.16276,0.21307 v 0.27166 0.27166 l 0.202695,0.28939 0.202696,0.28939 h 0.440956 0.440962 z m 0.06304,-7.73593 0.269866,-0.34308 v -0.18367 -0.18367 l -0.3196,-0.3196 -0.319599,-0.3196 h -0.266336 -0.266332 l -0.260417,0.26042 -0.260411,0.26041 v 0.32045 0.32045 l 0.284963,0.26548 0.284969,0.26549 h 0.291513 0.291519 z m 38.681735,-9.19462 4.9e-4,-3.28773 h 1.98499 1.98498 l 0.0348,3.28773 0.0348,3.28774 h -2.02045 -2.02045 l 4.9e-4,-3.28774 z m 2.72861,0.008 0.26548,-0.28496 v -0.30097 -0.30096 l -0.26041,-0.26042 -0.26042,-0.26042 h -0.32552 -0.32551 l -0.26042,0.26042 -0.26041,0.26042 v 0.32551 0.32552 l 0.26041,0.26042 0.26042,0.26041 h 0.32044 0.32045 z m -17.63761,2.75961 -0.08,-0.12951 -1.81566,-1.57016 -1.81565,-1.57015 2.6e-4,-0.0907 2.6e-4,-0.0907 0.69946,-0.36546 0.69945,-0.36546 0.8637,-0.71242 0.8637,-0.71242 0.58562,-0.74503 0.58561,-0.74502 0.5877,-1.17187 0.5877,-1.17186 0.26516,-1.04166 0.26516,-1.04166 0.004,-1.43228 0.004,-1.43229 -0.21715,-0.97655 -0.21715,-0.97656 -0.64508,-1.33882 -0.64507,-1.33883 -0.92698,-0.97586 -0.92697,-0.97587 -0.5986,-0.43836 -0.5986,-0.43837 -1.04166,-0.52317 -1.04166,-0.52316 -0.78125,-0.20835 -0.78124,-0.20835 -1.72524,-0.15315 -1.72526,-0.15315 v -2.90523 -2.9052 l 0.8789,9.8e-4 0.87891,9.9e-4 1.29631,0.19538 1.29631,0.19538 1.04742,0.27973 1.04742,0.27973 1.11274,0.47941 1.11273,0.47941 0.91365,0.5336 0.91365,0.5336 0.65879,0.49677 0.65878,0.49678 0.63512,0.5869 0.63512,0.58689 0.63586,0.71518 0.63586,0.71518 0.61565,0.91145 0.61564,0.91145 0.47791,0.94902 0.4779,0.94902 0.37531,1.1343 0.3753,1.1343 0.20647,1.22736 0.20646,1.22736 v 1.32718 1.32718 l -0.2014,1.15637 -0.2014,1.15637 -0.20762,0.71614 -0.20763,0.71614 -0.41819,0.99235 -0.41819,0.99234 -0.72067,1.10561 -0.72068,1.10561 -0.88178,0.93474 -0.88178,0.93473 -0.79296,0.63037 -0.79296,0.63036 -0.68932,0.40593 -0.68932,0.40593 h -0.11679 -0.1168 l -0.08,-0.12951 z m -7.71748,-6.75011 -1.84435,-1.51875 -0.004,-6.34762 -0.004,-6.34761 h 0.96805 0.96805 l 0.95251,0.19571 0.95252,0.19571 1.10235,0.54068 1.10236,0.54069 0.98189,0.98886 0.98189,0.98885 0.4257,0.84733 0.42571,0.84734 0.19013,0.71515 0.19013,0.71516 0.0812,0.97655 0.0812,0.97656 -0.2721,1.13839 -0.27211,1.1384 -0.31485,0.62132 -0.31485,0.62133 -0.58735,0.77932 -0.58736,0.77933 -0.89081,0.66967 -0.8908,0.66968 -0.78793,0.39335 -0.78793,0.39335 z m 2.31093,-3.27656 0.21867,-0.32551 -0.0755,-2.78582 -0.0755,-2.78581 -0.36404,-0.27139 -0.36403,-0.27138 -0.35211,0.19728 -0.3521,0.19729 -0.0857,2.40419 -0.0857,2.40418 -0.0922,0.49628 -0.0922,0.49629 0.30408,0.32367 0.30408,0.32368 0.44686,-0.0387 0.44685,-0.0387 z m -35.394164,-1.80806 -0.17557,-0.11115 0.04715,-0.24481 0.04715,-0.24481 h 0.25863 0.25863 v 0.31467 0.31466 l -0.130206,0.0413 -0.130205,0.0413 z m 2.35084,-5.77651 0.03824,-0.94401 h 4.264054 4.264059 l 2.6e-4,0.0952 2.61e-4,0.0952 -0.41857,0.84882 -0.41857,0.84881 H 79.090923 75.20694 l 0.03824,-0.944 z m 8.697048,-13.96478 v -0.71614 h 3.190081 3.190081 v 0.11381 0.11381 l -0.336646,0.60233 -0.336651,0.60233 h -2.853435 -2.85343 z m 29.296676,-1.16418 v -0.31784 l 0.1427,-0.0882 0.1427,-0.0882 0.20062,0.20063 0.20063,0.20062 -0.0788,0.20541 -0.0788,0.20541 h -0.2645 -0.2645 z m -28.938611,-5.8764 -0.358069,-0.19425 v -0.67293 -0.67291 l 0.11625,0.12369 0.116249,0.1237 0.473687,0.74869 0.473683,0.7487 -0.231863,-0.005 -0.231864,-0.005 -0.358073,-0.19426 z"
       id="path302-3"
       inkscape:export-filename="ARSOFTLOGO.png"
       inkscape:export-xdpi="96"
       inkscape:export-ydpi="96" /><path
       style="fill:#0c1844;fill-opacity:1;stroke-width:0.128637"
       d="M 67.316569,114.15133 66.964434,113.96027 66.769862,113.584 66.57529,113.20774 V 75.884362 38.560987 l 0.210392,-0.356163 0.210393,-0.356163 0.35616,-0.21039 0.356166,-0.210391 h 5.029146 5.029145 l 0.257275,0.257274 0.257271,0.257273 v 9.660624 9.660621 l 0.437368,0.43737 0.437364,0.43736 h 4.193561 4.193557 v 0.0557 0.0557 l -0.900636,1.87387 -0.900636,1.87387 H 80.918113 76.094415 V 51.51364 41.02974 l -0.257275,-0.257274 -0.257275,-0.257273 -0.482384,-0.0055 -0.48239,-0.0055 -2.251145,0.01028 -2.251145,0.01028 -0.25727,0.255999 -0.257275,0.255999 -0.03433,14.598961 -0.03432,14.59896 0.197781,0.38247 0.19778,0.38246 0.286758,0.18468 0.286753,0.18467 1.91095,0.0389 1.910951,0.0389 0.243716,-0.30098 0.243715,-0.30098 v -0.31319 -0.31318 l -0.315744,-0.31575 -0.315744,-0.31574 h -1.16358 -1.163575 V 56.208852 42.830627 h 1.027195 1.027195 l 0.03403,12.346685 0.03408,12.34669 0.420366,0.42052 0.420366,0.42051 3.921123,0.0375 3.921127,0.0375 v 0.0735 0.0735 l -1.114612,2.30089 -1.114616,2.3009 H 75.43202 70.438415 l -0.420099,0.37535 -0.420099,0.37534 -0.03714,17.98756 -0.03714,17.987568 0.07089,0.39553 0.07089,0.39553 0.260688,0.27981 0.260684,0.27981 h 2.740739 2.740745 l 0.215652,-0.23829 0.215653,-0.23829 -0.0039,-16.838898 -0.0039,-16.83889 0.08173,-0.78197 0.08173,-0.78197 0.705291,-0.0285 0.705291,-0.0285 0.339869,0.0746 0.339873,0.0746 -0.03345,11.94826 -0.03345,11.94825 0.124206,0.32669 0.124206,0.326678 0.330641,0.21665 0.330645,0.21665 7.039556,0.0301 7.039555,0.0301 0.477678,-0.11511 0.477678,-0.11512 0.197664,-0.28221 0.197664,-0.282198 v -7.6053 -7.60533 l -0.235216,-0.21275 -0.235256,-0.2129 h -2.659084 -2.659085 v -0.11318 -0.11318 l 0.71731,-0.54157 0.717309,-0.54158 0.560034,-0.24773 0.560033,-0.24772 2.420965,-0.0301 2.420965,-0.0301 0.0353,2.15503 0.0353,2.15504 -0.196064,0.37915 -0.19607,0.37916 v 0.49231 0.49231 l 0.201568,0.28778 0.201569,0.28777 0.664587,0.49226 0.664593,0.49226 0.03573,4.49053 0.03574,4.49054 -0.07901,1.830618 -0.07901,1.83062 -9.324091,0.0346 -9.324097,0.0346 -0.310415,0.36092 -0.310416,0.36093 v 3.57731 3.5773 l 0.26661,0.33894 0.26661,0.33894 H 89.074048 99.33323 l 0.279698,-0.29772 0.279699,-0.29772 V 99.570612 88.471272 l -0.399509,-0.3732 -0.399513,-0.3732 h -0.313138 -0.313143 l -0.489478,-0.51455 -0.489478,-0.51454 h -0.212871 -0.212872 v -2.12251 -2.12251 h 2.197543 2.197542 l -0.0429,-0.1204 -0.0429,-0.12041 -1.408347,-1.17594 -1.408349,-1.17593 -3.73712,0.0537 -3.737125,0.0537 -0.599429,0.20394 -0.599429,0.20393 -0.75091,0.36339 -0.750905,0.36339 -0.912314,0.90046 -0.912319,0.90046 -0.528626,0.90046 -0.52862,0.90046 -0.417756,1.22204 -0.417751,1.22205 -0.05227,2.09035 -0.05227,2.09035 h -2.109291 -2.109285 v -6.22601 -6.22601 l 1.750796,-3.58255 1.750795,-3.58254 0.550937,-1.15774 0.550937,-1.15773 0.769784,-1.60796 0.769778,-1.60796 0.802514,-1.67228 0.802504,-1.67228 0.704975,-1.47932 0.704971,-1.47932 1.514144,-3.21592 1.51414,-3.21592 0.457258,-0.96478 0.457259,-0.964773 0.889322,-1.889071 0.889318,-1.889068 0.187113,-0.281806 0.187114,-0.281806 18.197007,-0.05508 18.19701,-0.05508 0.38591,0.07112 0.38592,0.07112 -0.0129,11.258074 -0.0129,11.25808 -0.0521,0.0521 -0.0521,0.0521 -1.89442,0.0477 -1.89441,0.0477 -0.0345,-9.87 -0.0345,-9.869999 -0.37782,-0.394317 -0.37782,-0.394316 h -4.46087 -4.46087 l -0.32707,0.257274 -0.32707,0.257274 h -1.85717 -1.85717 l -0.23283,-0.257274 -0.23283,-0.257274 h -0.35678 -0.35678 l -0.19372,0.193717 -0.19372,0.193717 -0.0863,0.27197 -0.0863,0.271972 0.25141,0.338291 0.25141,0.338293 0.34935,0.04151 0.34934,0.04151 0.29158,-0.191046 0.29157,-0.191048 1.8291,0.07241 1.8291,0.07241 0.43089,0.430883 0.43088,0.430884 h 3.67988 3.67988 l -0.033,9.036729 -0.033,9.03674 -0.99693,0.0376 -0.99694,0.0376 v -1.02172 -1.02172 l -0.25198,-1.45995 -0.25198,-1.45995 -0.37292,-1.09341 -0.37293,-1.09341 -0.58533,-1.1638 -0.58534,-1.16381 -0.77291,-1.15166 -0.77292,-1.15166 -0.92428,-0.9995 -0.92427,-0.99949 -0.79088,-0.59712 -0.79088,-0.59712 -0.12864,-0.12077 -0.12863,-0.12077 1.67228,0.0518 1.67227,0.0518 0.26451,0.14533 0.26451,0.14532 1.28809,1.90621 1.28808,1.9062 0.29064,0.48184 0.29063,0.48185 -0.14616,0.4429 -0.14617,0.44289 0.19557,0.3782 0.19558,0.3782 0.20823,0.0799 0.20823,0.0799 h 0.35114 0.35113 l 0.28153,-0.26229 0.28153,-0.26229 v -0.3717 -0.37172 l -0.19226,-0.19226 -0.19226,-0.19226 -0.29365,-0.235 -0.29364,-0.23499 -1.14527,-1.7366 -1.14527,-1.7366 -0.81215,-1.24926 -0.81215,-1.24927 -0.24959,-0.13358 -0.24959,-0.13358 h -0.18406 -0.18407 l -0.3457,0.27193 -0.34569,0.27192 -1.7908,1.1e-4 -1.7908,1.1e-4 -1.12893,-0.58278 -1.12893,-0.58278 -1.41501,-0.464292 -1.41501,-0.464292 -1.22205,-0.249158 -1.22204,-0.249156 -1.41501,-0.133428 -1.41501,-0.133425 -1.23686,-1.07e-4 -1.23686,-1.08e-4 -0.33894,0.26661 -0.33894,0.26661 v 12.055736 12.05574 l 0.54671,0.51794 0.5467,0.51795 1.67228,1.42194 1.67228,1.42194 1.48937,1.27066 1.48937,1.27066 2.62701,2.2692 2.62701,2.26921 2.70137,2.34057 2.70137,2.34057 1.09342,0.9403 1.09341,0.9403 3.99452,3.4545 3.99452,3.454498 2.86921,2.50843 2.86922,2.50842 0.44214,0.38591 0.44214,0.38591 -0.0379,1.60796 -0.0379,1.60796 -2.12703,0.0352 -2.12703,0.0351 -1.80736,-1.57878 -1.80736,-1.57879 -2.04722,-1.75434 -2.04721,-1.75435 -3.53752,-3.052458 -3.53751,-3.05244 -6.17457,-5.2943 -6.17457,-5.2943 -1.5852,-1.34758 -1.5852,-1.34759 -0.19307,-0.1082 -0.19307,-0.10819 0.0417,15.5567 0.0417,15.556698 -0.17655,0.21303 -0.17654,0.21303 -17.060792,-0.005 -17.060785,-0.005 -0.35213,-0.19106 z m 29.277802,-16.329228 0.193716,-0.19372 0.08341,-0.26281 0.08342,-0.26281 -0.20659,-0.3153 -0.206586,-0.31529 h -0.439969 -0.43997 l -0.20025,0.2859 -0.200251,0.28589 v 0.2044 0.2044 l 0.262288,0.28152 0.262283,0.28153 h 0.307392 0.307391 z m 0.467633,-27.43104 -2.57e-4,-4.59877 0.05501,-3.28024 0.05501,-3.28023 -0.08696,-0.8975 -0.08691,-0.8975 -0.632752,1.34772 -0.632757,1.34773 -1.779185,3.65057 -1.779189,3.65056 v 0.0327 0.0327 l -1.736594,3.63201 -1.7366,3.632 v 0.11355 0.11355 h 4.180697 4.180697 l -2.57e-4,-4.59877 z m -4.252949,1.47932 0.239982,-0.5467 1.212393,-2.57274 1.212398,-2.57274 0.402096,-0.77182 0.402095,-0.77182 0.0062,3.89127 0.0062,3.89126 h -1.860715 -1.860665 z m -14.685074,-0.554 0.285897,-0.20025 v -0.41835 -0.41834 l -0.160797,-0.2105 -0.160796,-0.2105 -0.347278,-0.0837 -0.347278,-0.0837 -0.328064,0.32807 -0.328069,0.32807 v 0.24577 0.24577 l 0.26661,0.33894 0.26661,0.33894 h 0.283636 0.283632 z m -0.808227,-0.44408 -0.08022,-0.12979 0.08129,-0.25612 0.08129,-0.25613 h 0.234843 0.234842 l 0.0803,0.20926 0.0803,0.20926 -0.146609,0.17665 -0.146605,0.17665 h -0.169616 -0.169611 z m 53.776746,-3.78779 0.31574,-0.31574 v -0.29882 -0.29882 l -0.19152,-0.27343 -0.19151,-0.27343 -0.0336,-5.31874 -0.0336,-5.31873 h -0.3216 -0.32159 l -0.0336,5.25727 -0.0336,5.25727 -0.32013,0.38046 -0.32014,0.38046 v 0.25325 0.25326 l 0.31575,0.31574 0.31574,0.31574 h 0.26897 0.26897 z m -0.82008,-0.42392 -0.11578,-0.22512 0.0577,-0.16079 0.0577,-0.16079 h 0.22082 0.22083 l 0.14835,0.14834 0.14834,0.14834 -0.12715,0.23757 -0.12714,0.23757 h -0.1839 -0.1839 z m -51.008235,-6.02024 0.328064,-0.32807 -0.08212,-0.34727 -0.08213,-0.34728 -0.266041,-0.22512 -0.266037,-0.22511 h -0.16136 -0.161356 l -0.33894,0.26661 -0.33894,0.26661 v 0.37657 0.37658 l 0.257276,0.25727 0.257275,0.25727 h 0.263119 0.263119 z m -0.80178,-0.36377 -0.07532,-0.19631 0.08331,-0.13479 0.08331,-0.1348 h 0.258631 0.258627 l -0.04113,0.28812 -0.04113,0.28812 -0.225502,0.043 -0.225503,0.043 z m 4.417602,0.34392 0.160796,-0.21581 v -0.31903 -0.31904 l -0.212896,-0.23524 -0.212891,-0.23525 h -0.388001 -0.388006 l -0.235242,0.2129 -0.235246,0.21289 v 0.32552 0.32552 l 0.288868,0.30749 0.288867,0.30749 0.386475,-0.0758 0.386479,-0.0758 z m 42.453683,-4.74053 0.2859,-0.20026 v -0.31429 -0.3143 l -0.25728,-0.25727 -0.25727,-0.25728 h -0.3124 -0.31241 l -0.20214,0.20215 -0.20215,0.20214 v 0.33443 0.33444 l 0.2129,0.23524 0.21289,0.23524 h 0.27303 0.27304 z m -25.924623,-3.659985 0.515669,-0.515671 -0.06402,-0.666241 -0.06402,-0.66624 -0.456417,-0.418272 -0.456411,-0.418274 -0.439809,-0.08251 -0.439809,-0.08251 -0.468203,0.19563 -0.468207,0.195629 -0.259614,0.42581 -0.259604,0.425811 -4.86e-4,0.561841 -4.86e-4,0.561838 0.499411,0.499415 0.499415,0.499419 h 0.673451 0.673451 l 0.515672,-0.515678 z m 5.455613,61.897463 -0.21289,-0.23524 v -4.46 -4.46 h 2.32392 2.32392 l 0.28097,-0.14369 0.28098,-0.14369 0.22225,-0.27438 0.22226,-0.27438 0.003,-3.79479 0.003,-3.794788 0.12864,-0.4631 0.12864,-0.46311 0.25855,-0.23398 0.25854,-0.23398 0.70214,-0.0582 0.70213,-0.0582 0.7752,0.67156 0.77519,0.67156 v 0.11591 0.11591 h -0.43288 -0.43288 l -0.33451,0.26312 -0.33451,0.26312 -0.13235,0.47655 -0.13235,0.47653 -9.7e-4,4.588898 -9.7e-4,4.5889 0.33837,0.40215 0.33838,0.40214 0.59242,-0.0385 0.59241,-0.0385 0.2591,-0.40562 0.2591,-0.40561 0.38446,-0.0797 0.38446,-0.0797 0.61729,-0.60809 0.61728,-0.6081 4.11223,-0.0443 4.11222,-0.0443 0.80332,0.68513 0.80332,0.68513 0.99693,0.88899 0.99694,0.889 v 0.1103 0.11031 h -1.37042 -1.37041 l -0.68008,-0.64318 -0.68007,-0.64319 h -3.21524 -3.21525 l -0.32898,0.12508 -0.32898,0.12508 -0.57655,0.53144 -0.57655,0.53145 -2.6082,-0.0422 -2.60819,-0.0422 -0.2849,0.15958 -0.2849,0.15958 -0.14727,0.49156 -0.14728,0.49156 0.20614,0.39864 0.20615,0.39864 0.13051,0.0807 0.13051,0.0807 14.04859,-0.008 14.04858,-0.008 0.2613,-0.2613 0.26129,-0.26129 0.0366,-34.438948 0.0366,-34.438933 -0.0704,-0.395721 -0.0704,-0.39572 -0.18094,-0.247464 -0.18082,-0.247464 -24.61217,-0.07982 -24.612168,-0.07982 -0.580317,-0.09149 -0.580317,-0.09149 -0.349203,0.274685 -0.349204,0.274685 -0.146551,0.489139 -0.146551,0.48914 0.225119,0.474403 0.225119,0.4744 0.362175,0.187289 0.362179,0.187289 h 0.43203 0.43203 l 0.249701,-0.188865 0.2497,-0.188863 23.508378,-0.0041 23.50838,-0.0041 v 22.18985 22.18985 h -0.13152 -0.1315 l -0.57515,-0.53015 -0.57514,-0.53015 -0.29028,-0.46678 -0.29029,-0.46679 -0.0643,-5.12568 -0.0643,-5.12568 -0.38591,-0.30858 -0.38591,-0.3086 -3.25447,-4.8e-4 -3.25446,-4.9e-4 -0.37571,0.19429 -0.37571,0.19428 -0.11825,0.22379 -0.11826,0.22378 -0.0463,8.16844 -0.0463,8.16843 0.22752,0.41633 0.22752,0.41634 0.4026,0.45854 0.4026,0.45853 0.36042,0.18638 0.36043,0.18639 h 1.97881 1.9788 l 0.72896,0.14639 0.72896,0.1464 v 2.95021 2.95021 l -0.36649,-0.29875 -0.36649,-0.29876 -2.05168,-1.80092 -2.05168,-1.80091 -2.75947,-2.39212 -2.75946,-2.39212 -1.40406,-1.20971 -1.40406,-1.2097 -0.12886,-0.20916 -0.12886,-0.20917 1.65274,-1.82489 1.65274,-1.8249 0.42231,-0.17645 0.42231,-0.17644 0.0842,-0.33526 0.0841,-0.33525 -0.22814,-0.25209 -0.22814,-0.25209 h -0.2174 -0.2174 l -0.21289,0.23524 -0.21289,0.23524 v 0.12863 0.12862 l -1.31518,1.40489 -1.31517,1.40489 -0.56061,0.55465 -0.56061,0.55465 -0.52903,-0.43678 -0.52903,-0.43679 -0.0421,-0.12611 -0.0421,-0.12611 3.02498,-3.20768 3.02498,-3.20767 0.38111,-0.1589 0.38111,-0.15891 0.13419,-0.25074 0.13419,-0.25075 -0.12547,-0.33001 -0.12547,-0.33001 h -0.45611 -0.45617 l -0.15262,0.35375 -0.15262,0.35375 -1.09883,1.21362 -1.09883,1.21363 -2.0422,2.09877 -2.0422,2.09877 h -0.10439 -0.10438 l -0.61892,-0.56833 -0.61892,-0.56834 0.0641,-0.0525 0.0641,-0.0525 0.96478,-0.72137 0.96478,-0.72138 1.05018,-1.06971 1.05018,-1.0697 0.73282,-1.0291 0.73282,-1.0291 0.62312,-1.24027 0.62312,-1.24028 0.37489,-1.1395 0.37488,-1.13951 0.16608,-0.93261 0.16608,-0.93262 4.83544,-0.003 4.83544,-0.003 0.27438,-0.22226 0.27437,-0.22225 0.14369,-0.28098 0.1437,-0.28097 V 58.420912 45.69476 l -0.26418,-0.335844 -0.26417,-0.335843 -0.47549,-0.137508 -0.47548,-0.137507 -19.57554,0.03793 -19.575541,0.03793 -0.363166,0.262594 -0.363172,0.262592 -0.771821,1.519255 -0.771821,1.519254 -4.467269,0.01907 -4.467275,0.01907 -0.355777,0.355844 -0.355776,0.355843 -0.0475,1.947031 -0.0475,1.947031 0.151286,0.50495 0.151282,0.50494 0.473176,0.19771 0.473176,0.1977 2.86323,-0.0934 2.863234,-0.0934 v 0.1401 0.14011 l -0.348392,0.71035 -0.348386,0.71035 h -4.088876 -4.089581 v -9.061604 -9.061599 l 0.285897,-0.20025 0.285897,-0.200249 h 0.530303 0.530308 l 0.212891,0.235243 0.212891,0.235243 v 3.733475 3.733473 l 0.294235,0.437094 0.294235,0.437093 0.381112,0.184223 0.381107,0.184224 0.646978,0.05447 0.646983,0.05447 0.481504,-0.201186 0.481509,-0.201186 0.222197,-0.390443 0.222202,-0.390443 1.286367,0.0033 1.286371,0.0033 0.2497,0.188864 0.249701,0.188864 h 0.336737 0.336738 l 0.233617,-0.170828 0.233622,-0.170828 V 45.227651 44.879669 L 90.562174,44.626657 90.3332,44.373646 h -0.404566 -0.40456 l -0.13374,0.133738 -0.133736,0.133737 -1.198566,-0.03726 -1.198566,-0.03726 -0.731156,-1.070585 -0.731156,-1.070583 -0.342047,-0.389807 -0.342051,-0.389814 v -1.852006 -1.852005 l 0.257275,-0.257274 0.25727,-0.257273 27.946349,5.34e-4 27.94635,5.35e-4 0.42581,0.259609 0.42581,0.259609 0.18521,0.443281 0.18521,0.443213 v 37.055657 37.055668 l -0.17736,0.4245 -0.17737,0.4245 -0.35453,0.27887 -0.35453,0.27888 h -18.10047 -18.10051 z m 4.67531,-6.45387 0.25727,-0.25727 v -0.36597 -0.36598 l -0.24524,-0.22194 -0.24524,-0.22194 -0.42609,0.0412 -0.42609,0.0412 -0.18459,0.3305 -0.18459,0.33051 0.088,0.35041 0.0879,0.35041 0.28559,0.11491 0.28558,0.11491 0.22512,0.008 0.22511,0.008 0.25728,-0.25727 z m -37.604831,1.32925 -0.08576,-0.0858 V 92.226572 75.546082 l 0.611024,-0.0249 0.611025,-0.0249 0.450228,0.0742 0.450228,0.0742 -0.03311,16.71692 -0.03311,16.716918 h -0.94238 -0.94238 z m 8.404271,-1.97243 v -2.06 l 8.650826,0.0331 8.650821,0.0331 v 1.99387 1.99387 l -8.650821,0.0331 -8.650826,0.0331 z m 2.594767,0.68756 0.235241,-0.21289 v -0.36597 -0.36598 l -0.257275,-0.25727 -0.25727,-0.25727 h -0.312258 -0.312254 l -0.268866,0.3418 -0.268861,0.34181 0.08179,0.26922 0.08179,0.26922 0.197678,0.22511 0.197679,0.22511 h 0.323683 0.323684 z m 3.193889,-0.0444 0.257271,-0.25727 v -0.32159 -0.3216 l -0.257271,-0.25727 -0.257275,-0.25727 h -0.321593 -0.321593 l -0.25727,0.25727 -0.257275,0.25727 v 0.3216 0.32159 l 0.257275,0.25727 0.25727,0.25727 h 0.321593 0.321593 z m 3.215919,0 0.257275,-0.25727 v -0.38591 -0.38591 l -0.257275,-0.25728 -0.257275,-0.25727 h -0.26312 -0.263119 l -0.315744,0.31575 -0.315749,0.31574 v 0.24577 0.24577 l 0.26661,0.33894 0.26661,0.33894 h 0.312258 0.312254 z m -0.815918,-0.44391 -0.07647,-0.19927 0.07405,-0.19295 0.07405,-0.19296 h 0.252054 0.252053 l -0.04069,0.35265 -0.04069,0.35265 -0.208929,0.0396 -0.208929,0.0396 z m 4.182506,0.48829 0.235241,-0.21289 v -0.388 -0.38801 l -0.212891,-0.23524 -0.212892,-0.23524 h -0.360964 -0.360959 l -0.262288,0.28153 -0.262283,0.28152 v 0.17716 0.17716 l 0.147893,0.28097 0.147898,0.28098 0.141534,0.0945 0.141538,0.0945 0.311466,0.002 0.311461,0.002 0.235246,-0.2129 z m 3.215918,0 0.235246,-0.21289 v -0.36597 -0.36598 l -0.257275,-0.25727 -0.257275,-0.25727 h -0.312253 -0.312258 l -0.26661,0.33894 -0.26661,0.33894 v 0.15826 0.15825 l 0.26661,0.33894 0.26661,0.33894 h 0.334287 0.334287 z m 18.585989,-1.6845 -0.0595,-0.0965 -0.002,-1.99387 -10e-4,-1.99386 0.0857,-1.52127 0.0857,-1.521258 1.54794,1.392618 1.54794,1.39263 0.42364,0.35375 0.42364,0.35375 h 0.34885 0.34884 l 0.50462,-0.25727 0.50463,-0.25727 h 0.0943 0.0943 l 1.00407,0.85072 1.00408,0.85073 0.67534,0.63588 0.67534,0.63588 v 0.0605 0.0605 l -3.51297,-0.0829 -3.51298,-0.0829 -0.50692,0.26063 -0.50693,0.26062 -0.37782,0.39769 -0.37781,0.39769 h -0.22562 -0.22561 l -0.0595,-0.0965 z m -9.86071,-10.516058 v -7.13934 h 0.076 0.0761 l 1.20822,1.06125 1.20822,1.06126 -0.41597,0.17211 -0.41597,0.1721 -0.30195,0.27813 -0.30195,0.27812 -0.26971,0.51454 -0.26971,0.51455 -0.0412,2.70137 -0.0412,2.70138 -0.0791,0.4813 -0.0791,0.4813 0.16104,0.19404 0.16104,0.19404 h 0.36719 0.3672 l 0.21865,-0.3337 0.21865,-0.3337 -0.2231,-0.41429 -0.22311,-0.41428 0.0396,-2.72256 0.0396,-2.72257 0.34805,-0.34777 0.34806,-0.34778 0.77026,-0.0557 0.77025,-0.0557 0.96234,0.81892 0.96234,0.81892 0.01,0.0965 0.01,0.0965 h -0.33857 -0.33857 l -0.42677,0.26376 -0.42677,0.26375 -0.29591,0.47591 -0.29592,0.4759 -0.042,3.95559 -0.042,3.955588 h -1.72678 -1.72679 z m 31.21049,5.880268 -1.01303,-0.86343 0.0641,-4.180688 0.0641,-4.1807 -0.20219,-0.35008 -0.20219,-0.35008 -0.36526,-0.12733 -0.36525,-0.12733 -1.44721,0.0776 -1.44722,0.0776 -0.72523,-0.0906 -0.72524,-0.0906 -0.33105,-0.33105 -0.33107,-0.33106 v -2.56896 -2.56896 l 0.20348,0.0781 0.20347,0.0781 h 1.7904 1.7904 l 9.7e-4,0.22512 9.7e-4,0.22511 0.3754,0.6545 0.3754,0.6545 1.15088,1.08338 1.15087,1.08339 0.59503,0.29717 0.59502,0.29717 v 6.10122 6.101238 l -0.0965,-0.005 -0.0965,-0.005 -1.01303,-0.86343 z m -2.17903,-12.270208 0.29773,-0.2797 v -0.25688 -0.25688 l -0.2129,-0.23524 -0.21289,-0.23524 h -0.41453 -0.41455 l -0.16047,0.19335 -0.16046,0.19335 v 0.34558 0.34558 l 0.2876,0.23289 0.2876,0.23289 h 0.20258 0.20257 z m -53.34382,6.96881 v -2.31546 h 2.120006 2.120001 l -0.02966,1.16817 -0.02966,1.16818 0.420099,0.37546 0.420099,0.37547 h 0.261637 0.261631 l 0.385045,-0.19912 0.38505,-0.19911 0.123112,-0.32381 0.123107,-0.3238 v -1.02072 -1.02072 h 1.405137 1.405137 l 0.39578,-0.33303 0.39578,-0.33303 v -0.513 -0.51301 l -0.383105,-0.3831 -0.383105,-0.38311 -1.417812,0.0897 -1.417812,0.0897 v -1.28105 -1.28105 l 0.134353,-0.76329 0.134353,-0.76328 0.271039,-0.7075 0.271044,-0.70751 0.248281,-0.41807 0.248285,-0.41807 h 2.112013 2.112018 v 6.6248 6.62479 h -6.045931 -6.045927 z m 10.219331,0.48592 0.20025,-0.28589 v -0.28363 -0.28364 l -0.348187,-0.27388 -0.348182,-0.27388 -0.32716,0.0786 -0.327159,0.0786 -0.160797,0.2105 -0.160796,0.2105 v 0.26838 0.26839 l 0.20025,0.28589 0.200251,0.2859 h 0.435637 0.435643 z m 0.06228,-7.64261 0.26661,-0.33894 v -0.18146 -0.18145 l -0.315748,-0.31573 -0.315744,-0.31575 h -0.263124 -0.26312 l -0.257275,0.25728 -0.25727,0.25727 v 0.31658 0.31658 l 0.281526,0.26229 0.281531,0.26228 h 0.287997 0.288003 z m 38.215139,-9.08371 4.9e-4,-3.24807 h 1.96104 1.96104 l 0.0344,3.24807 0.0344,3.24808 h -1.99608 -1.99608 l 4.9e-4,-3.24808 z m 2.69569,0.008 0.26229,-0.28153 v -0.29734 -0.29733 l -0.25728,-0.25728 -0.25727,-0.25727 h -0.32159 -0.32159 l -0.25728,0.25727 -0.25727,0.25728 v 0.32159 0.32159 l 0.25727,0.25727 0.25728,0.25728 h 0.31658 0.31658 z m -17.42485,2.72632 -0.0791,-0.12795 -1.79375,-1.55122 -1.79375,-1.55122 2.6e-4,-0.0896 2.6e-4,-0.0896 0.69101,-0.36105 0.69102,-0.36105 0.85328,-0.70383 0.85328,-0.70382 0.57856,-0.73604 0.57855,-0.73604 0.58061,-1.15773 0.5806,-1.15773 0.26197,-1.0291 0.26196,-1.02909 0.004,-1.41501 0.004,-1.415 -0.21453,-0.96478 -0.21453,-0.96478 -0.6373,-1.32267 -0.63729,-1.32268 -0.91579,-0.96409 -0.91579,-0.96409 -0.59139,-0.43308 -0.59137,-0.43308 -1.0291,-0.51686 -1.0291,-0.51685 -0.77182,-0.20584 -0.77182,-0.20584 -1.70443,-0.1513 -1.70444,-0.1513 v -2.87018 -2.87016 l 0.8683,7.8e-4 0.8683,7.8e-4 1.28067,0.19302 1.28068,0.19303 1.03479,0.27635 1.03478,0.27636 1.09931,0.47362 1.09931,0.47363 0.90264,0.52717 0.90263,0.52716 0.65084,0.49078 0.65083,0.49078 0.62746,0.57982 0.62746,0.57982 0.62819,0.70655 0.62819,0.70655 0.60822,0.90046 0.60822,0.90045 0.47214,0.93757 0.47214,0.93757 0.37078,1.12062 0.37078,1.12062 0.20397,1.21256 0.20398,1.21256 v 1.31117 1.31117 l -0.19898,1.14242 -0.19897,1.14242 -0.20512,0.7075 -0.20512,0.7075 -0.41314,0.98038 -0.41315,0.98037 -0.71198,1.09228 -0.71198,1.09227 -0.87115,0.92346 -0.87114,0.92346 -0.7834,0.62276 -0.7834,0.62276 -0.681,0.40103 -0.68101,0.40104 h -0.11538 -0.11538 l -0.0791,-0.12795 z m -7.62439,-6.66869 -1.8221,-1.50044 -0.004,-6.27104 -0.004,-6.27104 h 0.95637 0.95637 l 0.94102,0.19334 0.94103,0.19335 1.08906,0.53416 1.08906,0.53417 0.97004,0.97692 0.97005,0.97693 0.42057,0.83711 0.42057,0.83711 0.18784,0.70653 0.18784,0.70653 0.0802,0.96478 0.0802,0.96478 -0.26883,1.12466 -0.26882,1.12466 -0.31105,0.61383 -0.31105,0.61383 -0.58028,0.76993 -0.58027,0.76992 -0.88006,0.6616 -0.88006,0.6616 -0.77842,0.3886 -0.77843,0.38861 z m 2.28306,-3.23703 0.21603,-0.32159 -0.0746,-2.75222 -0.0746,-2.75221 -0.35965,-0.26811 -0.35964,-0.26811 -0.34786,0.19491 -0.34786,0.1949 -0.0847,2.37519 -0.0847,2.37519 -0.0911,0.49029 -0.0911,0.4903 0.30042,0.31977 0.30041,0.31977 0.44146,-0.0383 0.44147,-0.0383 z m -34.967232,-1.78626 -0.173452,-0.1098 0.04658,-0.24186 0.04658,-0.24186 h 0.255511 0.25551 v 0.31087 0.31087 l -0.128635,0.0408 -0.128635,0.0408 z m 2.322483,-5.70684 0.03778,-0.93261 h 4.21262 4.212624 l 2.58e-4,0.094 2.58e-4,0.094 -0.413521,0.83858 -0.413521,0.83857 H 79.92031 76.083177 l 0.03778,-0.93262 z M 84.713084,51.385033 V 50.67753 h 3.151601 3.151601 v 0.112435 0.112434 l -0.332586,0.595068 -0.33259,0.595068 h -2.819016 -2.81901 z m 28.943276,-1.150199 v -0.314002 l 0.14098,-0.08713 0.14099,-0.08713 0.1982,0.198201 0.1982,0.198202 -0.0779,0.20293 -0.0779,0.20293 h -0.26131 -0.26131 z M 85.066829,44.429327 84.71308,44.237414 V 43.57261 42.907808 l 0.114847,0.122205 0.114847,0.122204 0.467974,0.739662 0.467969,0.739662 -0.229067,-0.0051 -0.229067,-0.0051 -0.353754,-0.191912 z"
       id="path302" /></g></svg>
